<?xml version="1.0" encoding="UTF-8"?>
<svg id="Layer_1" xmlns="http://www.w3.org/2000/svg" version="1.1" viewBox="0 0 1280 774">
  <!-- Generator: Adobe Illustrator 30.1.0, SVG Export Plug-In . SVG Version: 2.1.1 Build 136)  -->
  <defs>
    <style>
      .st0 {
        fill: #ffe81f;
      }
    </style>
  </defs>
  <path class="st0" d="M858.4,504.7c-22.7,1.2-44.1,1.4-67.1-1l.2-51.2,64.3.6c6.9.5,12.5,2.3,17.4,7,7.2,7.1,10.3,17,7,27-2.9,8.7-10.9,15.4-21.7,17.6ZM856.3,489.9c6.9-.6,11-6.9,10.2-12s-5.4-9.9-11.5-10l-48.8-.5-.2,23.1c17.1.4,33.1.9,50.3-.5Z"/>
  <path class="st0" d="M1070.6,207.9c7.6,14.1,4.6,30.9-10.4,38.6s-8.2,1.7-12.2,2.1h-62.5c0,.1,0-52.6,0-52.6l60.3.3c9.8.9,18.7,3.8,24.9,11.7ZM1055.6,213.8c-3.6-1.7-7.7-2.8-11.6-2.9l-43.8-.2v23.2s49.7-.2,49.7-.2c2.9,0,6.3-1.8,7.7-3.6,3.8-4.7,2.7-14.2-2-16.4Z"/>
  <path class="st0" d="M774.2,288.8h-73.6c0,.1,37.7-105.3,37.7-105.3l35.8,105.3ZM753.8,274.1l-15.7-46.1-16.7,46.2h32.4Z"/>
  <g>
    <path class="st0" d="M806.3,573.4l-.4,64-95.6-.4-.5-241.7,165.4.5c28.8,0,53.2,18.6,68.7,41.3,8.1,13.8,13.8,28,12.2,44.2-1.1,11.8-5.4,23.4-11.7,33.3-7.6,12-18.4,19.9-29.8,28.3,2.6,2.4,5.7,3.4,9.3,3.4h135.9c-20.1-29.8-48.1-42.5-49.4-82.1-1-29.6,16.4-56.2,44.3-66.2,9.8-3.5,19.4-4.9,30.2-5.2h151.9s-.2,85.5-.2,85.5l-114.6-.2c5.2,7.6,9.8,13.3,15,19.9l25.2,31.8c9.2,11.7,13.1,25.4,11.9,40.5s-12.5,38.8-28.5,51.8c-8.2,6.7-16.9,11.3-27.7,12.6-11.9,1.5-23.4,2.3-35.7,2.3l-186.3-.6c-10.7,0-19.4-2.5-27.9-8.3l-25-20.1-36.9-34.6ZM724.7,410.1l.4,212.2,66.2.3.6-82.2,46.7,43.2c11.8,10.9,23.2,21.3,35.8,30.9,6.8,5.1,13.5,7.1,22.1,7.1l187.3.5c11.3,0,21.4-.8,32.2-2,7.7-.9,14.1-4.3,20-9,22.6-18,33-49.4,14.2-73.2l-27.8-35.1c-5.4-6.8-11.1-13.3-14.9-21.1-3.2-6.4.5-14.8,5.9-18.4h108.8c0,.1.1-55.7.1-55.7h-138.1c-7.5.3-14,1.1-20.8,3.1-23.8,6.8-39,28.8-38,53.5.8,17.9,8.7,29.9,20.8,42.8,9.5,10.1,18.6,20.2,26.7,31.3,3.5,4.7,3.7,9.5,1.1,14.6s-4.5,6.5-8.6,7c-5.9.7-11.4,1.4-17.6,1.4l-118.8-.3c-20.5,0-23.4-5.2-37.1-21,.6-1.7,2.4-3.4,4-4.2,23.7-11.3,44-29.7,45.7-57.6.8-13.1-4.6-23.9-11.1-34.9-13.1-17.7-32.3-32.8-55.7-32.9l-150.3-.4Z"/>
    <path class="st0" d="M365,279.3c19.3,25.6,6.2,67.9-20.3,87.6-9.6,7.1-19.8,11.2-31.6,12s-31.6,1.3-48.4,1.5H68.2s0-88.8,0-88.8h193c-12.5-19.2-43.6-45.2-48.6-66.2-9.8-41,22.3-87.7,66.5-88.2l351.1-.5v82.3s-105.7,0-105.7,0v161.3s-92.5.1-92.5.1v-161.6s-111.1.4-111.1.4c4.5,8.2,9.6,14.4,15,21.3l29.2,38.8ZM352.8,287.4l-28.4-37.6c-5.3-7-10.5-13.6-15.2-20.9s-3.3-11.6-.3-17,7.5-7.5,13.7-7.5l124.3-.3v161.6s63,0,63,0v-161.4s105.7,0,105.7,0v-52.8s-336.6.5-336.6.5c-33.9.6-59.1,37.3-52.2,69s7,15.1,12.4,21.3l32,37.1c4.9,5.6,6.3,12.5,1.9,19.2-2.2,3.3-6.1,6-10.1,7.9H83s0,59.4,0,59.4h177.5s49.6-1.3,49.6-1.3c9.8-.2,18.2-3.5,26-9.4,20.1-15.1,31.5-48,16.7-67.6Z"/>
    <path class="st0" d="M342.8,394.4h91.8c0,0-83.3,242.8-83.3,242.8l-63.2.2-34.9-100.6-36.2,98.8h-62.6c0,0-82.3-241.8-82.3-241.8l91.3-.2,23,64.7,22.7-64.6h88.9s22.3,65.5,22.3,65.5l22.5-64.8ZM353.2,409.3l-32.3,91.9c-5.6-11.1-8.8-21.4-12.9-32.4l-20.7-60.4h-67.7s-33.1,93.5-33.1,93.5l-33.4-93.4h-60.4c0,0,72.2,212.4,72.2,212.4h41.8s46.9-128.5,46.9-128.5l44.9,130.1h42.2s73.2-213.3,73.2-213.3h-60.7Z"/>
    <path class="st0" d="M1236.6,292.5l1.8,87.7h-114.3s-42.9-1.1-42.9-1.1c-6.5-.2-12.4-2.8-18-5.9-6.6-5-13-9.5-19.2-15.1l-42.6-38.8v60.9s-97.8,0-97.8,0v-241.9s102.3,0,102.3,0l75.1,1.4c21.9,2.4,40.2,14.1,53.6,31,8.8,11,13.3,22.5,14.9,36.5,4.1,34.9-11.6,61.7-41.2,79.7,1.3,1.2,3.1,2.7,4.9,3.9l123.3,1.7ZM1222.1,307.1l-114.2-1.6c-8.9-6.2-16.5-12.9-22.9-22.4,9-5.4,17.4-9.8,25.2-15.5,19-13.9,27.5-35.4,24.8-58.4-1.4-11.6-4.9-20.9-12.3-29.9-10.9-13.3-25.2-22.8-42.7-24.9l-67-1.3h-94.6s0,212.5,0,212.5h68.3s0-80.6,0-80.6l62.9,58.5c8.1,7.5,16.3,13.5,25.4,19.8l19.2,1.9,129.2.4-1.2-58.5Z"/>
    <path class="st0" d="M780.2,349.8l-86-.4-9.7,30.9h-93.1c0,0,83.4-241.9,83.4-241.9h122.9c0-.1,84.4,244,84.4,244l-92.1-.4-9.9-32.2ZM791.1,335.2l9.9,32.1,60.4.2-74.1-214.4h-102s-73.3,212.4-73.3,212.4h61.4c0,0,9.9-30.9,9.9-30.9l107.7.5Z"/>
    <path class="st0" d="M583.3,603.5l-86.4-.8-9.8,32.2-91.4-1.1,83.4-241.8,121.7-.3,84.6,243.4-92,.5-10.2-32.3ZM594.3,588.9l9.9,32,60.6-.5-74.3-213.8h-100.8s-73.4,212.7-73.4,212.7l60,.7,9.7-32.2,108.4,1Z"/>
    <path class="st0" d="M576.5,541.3l-72.7.5,37.8-103.3,34.9,102.8ZM555.9,526.6l-14.8-43.7-16.1,43.8h30.9Z"/>
  </g>
</svg>